<?xml version="1.0" encoding="UTF-8"?>
<svg id="Layer_2" data-name="Layer 2" xmlns="http://www.w3.org/2000/svg" viewBox="0 0 47.31 43.17">
  <defs>
    <style>
      .cls-1 {
        fill: #333;
        stroke-width: 0px;
      }
    </style>
  </defs>
  <g id="Layer_1-2" data-name="Layer 1">
    <g>
      <path class="cls-1" d="M15.63,27.16s-.04-.01-.05-.03c-.01-.03,0-.06.03-.07,2.87-1.2,5.75-2.79,8.57-4.72,7.45-5.13,12.73-11.56,13.46-16.39,0-.03.03-.05.06-.04.03,0,.05.03.04.06-.73,4.86-6.03,11.32-13.51,16.46-2.82,1.94-5.71,3.54-8.59,4.73,0,0-.01,0-.02,0Z"/>
      <path class="cls-1" d="M1.61,28.35s-.03,0-.04-.02c-2.93-4.26,2.82-13.33,12.82-20.21,4.6-3.17,9.5-5.45,13.78-6.44,4.27-.98,7.55-.58,9.23,1.14.02.02.02.05,0,.07-.02.02-.05.02-.07,0-3.42-3.49-13.47-1.16-22.87,5.31C4.49,15.05-1.25,24.05,1.65,28.26c.02.02.01.06-.01.07,0,0-.02,0-.03,0Z"/>
      <path class="cls-1" d="M13.74,29.31s-.04-.01-.05-.04c0-.03,0-.06.03-.07,3.65-1.19,7.54-3.17,11.24-5.72,9.95-6.85,15.69-15.85,12.79-20.07-.02-.02-.01-.06.01-.07.02-.02.06-.01.07.01,2.93,4.26-2.82,13.33-12.82,20.21-3.72,2.56-7.61,4.54-11.27,5.74,0,0-.01,0-.02,0Z"/>
      <path class="cls-1" d="M2.4,29.5s-.03,0-.04-.02c-2.93-4.26,2.82-13.33,12.82-20.21,4.37-3,9.04-5.24,13.17-6.29,4.1-1.04,7.39-.86,9.28.51.02.02.03.05.01.07-.02.02-.05.03-.07.01-1.86-1.36-5.13-1.53-9.19-.5-4.12,1.05-8.78,3.28-13.14,6.27C5.28,16.2-.46,25.2,2.44,29.41c.02.02.01.06-.01.07,0,0-.02,0-.03,0Z"/>
      <path class="cls-1" d="M12.42,31.06s-.05-.02-.05-.04c0-.03.01-.06.04-.06,4.17-1.03,8.91-3.27,13.35-6.33,9.95-6.85,15.69-15.85,12.79-20.07-.02-.02-.01-.06.01-.07.02-.02.06-.01.07.01,2.93,4.26-2.82,13.33-12.82,20.21-4.45,3.06-9.2,5.31-13.39,6.34,0,0,0,0-.01,0Z"/>
      <path class="cls-1" d="M3.19,30.64s-.03,0-.04-.02c-1.43-2.07-.87-5.32,1.56-9.14,2.42-3.81,6.42-7.74,11.26-11.07,4.12-2.84,8.57-5.01,12.52-6.12,3.91-1.09,7.19-1.12,9.26-.07.03.01.04.04.02.07-.01.03-.04.04-.07.02-2.04-1.04-5.3-1.01-9.18.08-3.95,1.11-8.38,3.27-12.49,6.1-4.83,3.32-8.82,7.24-11.23,11.04-2.41,3.79-2.96,6.99-1.56,9.03.02.02.01.06-.01.07,0,0-.02,0-.03,0Z"/>
      <path class="cls-1" d="M11.45,32.58s-.05-.02-.05-.04c0-.03.01-.06.04-.06,4.52-.75,10.02-3.19,15.11-6.69,4.83-3.32,8.82-7.24,11.23-11.04,2.41-3.79,2.96-6.99,1.56-9.03-.02-.02-.01-.06.01-.07.02-.02.06-.01.07.01,1.43,2.07.87,5.32-1.56,9.14-2.42,3.81-6.42,7.74-11.26,11.07-5.09,3.51-10.62,5.95-15.15,6.71,0,0,0,0,0,0Z"/>
      <path class="cls-1" d="M3.98,31.79s-.03,0-.04-.02c-2.93-4.26,2.82-13.33,12.82-20.21,3.94-2.71,8.04-4.76,11.88-5.93,3.77-1.15,6.93-1.35,9.15-.58.03,0,.04.04.03.07,0,.03-.04.04-.07.03-2.17-.75-5.39-.55-9.09.58-3.82,1.16-7.92,3.21-11.85,5.91C6.86,18.49,1.12,27.49,4.02,31.71c.02.02.01.06-.01.07,0,0-.02,0-.03,0Z"/>
      <path class="cls-1" d="M10.73,33.92s-.05-.02-.05-.05c0-.03.02-.05.05-.06,4.8-.41,10.85-2.92,16.61-6.88,9.95-6.85,15.69-15.85,12.79-20.07-.02-.02-.01-.06.01-.07.02-.02.06-.01.07.01,2.93,4.26-2.82,13.33-12.82,20.21-5.77,3.97-11.85,6.49-16.66,6.9,0,0,0,0,0,0Z"/>
      <path class="cls-1" d="M4.77,32.94s-.03,0-.04-.02c-2.93-4.26,2.82-13.33,12.82-20.21,7.44-5.12,15.34-7.77,20.14-6.75.03,0,.05.03.04.06,0,.03-.03.05-.06.04-4.77-1.01-12.65,1.63-20.06,6.73C7.65,19.64,1.91,28.64,4.81,32.86c.02.02.01.06-.01.07,0,0-.02,0-.03,0Z"/>
      <path class="cls-1" d="M10.23,35.12h-.03s-.05-.02-.05-.05c0-.03.02-.05.05-.05h.03c4.89,0,11.58-2.59,17.89-6.94,9.95-6.85,15.69-15.85,12.79-20.07-.02-.02-.01-.06.01-.07.02-.02.06-.01.07.01,2.93,4.26-2.82,13.33-12.82,20.21-6.33,4.36-13.04,6.96-17.95,6.96Z"/>
      <path class="cls-1" d="M5.56,34.09s-.03,0-.04-.02c-2.93-4.26,2.82-13.33,12.82-20.21,6.9-4.75,14.23-7.39,19.13-6.9.03,0,.05.03.05.06,0,.03-.03.05-.06.05-4.88-.49-12.19,2.15-19.06,6.88-9.95,6.85-15.69,15.85-12.79,20.07.02.02.01.06-.01.07,0,0-.02,0-.03,0Z"/>
      <path class="cls-1" d="M11.05,36.27c-.42,0-.82-.02-1.21-.06-.03,0-.05-.03-.05-.06,0-.03.03-.05.06-.05,4.88.49,12.19-2.15,19.06-6.88,4.83-3.32,8.82-7.24,11.23-11.04,2.41-3.79,2.96-6.99,1.56-9.03-.02-.02-.01-.06.01-.07.02-.02.06-.01.07.01,1.43,2.07.87,5.32-1.56,9.14-2.42,3.81-6.42,7.74-11.26,11.07-6.35,4.37-13.07,6.96-17.93,6.96Z"/>
      <path class="cls-1" d="M6.35,35.24s-.03,0-.04-.02c-2.93-4.26,2.82-13.33,12.82-20.21,6.33-4.36,13.04-6.96,17.95-6.96h.03s.05.02.05.05c0,.03-.02.05-.05.05h-.03c-4.89,0-11.58,2.59-17.89,6.94-9.95,6.85-15.69,15.85-12.79,20.07.02.02.01.06-.01.07,0,0-.02,0-.03,0Z"/>
      <path class="cls-1" d="M11.85,37.43c-.8,0-1.54-.07-2.23-.22-.03,0-.05-.03-.04-.06,0-.03.03-.05.06-.04,4.78,1.01,12.65-1.63,20.06-6.73,4.83-3.32,8.82-7.24,11.23-11.04,2.41-3.79,2.96-6.99,1.56-9.03-.02-.02-.01-.06.01-.07.02-.02.06-.01.07.01,1.43,2.07.87,5.32-1.56,9.14-2.42,3.81-6.42,7.74-11.26,11.07-6.38,4.39-13.1,6.96-17.92,6.96Z"/>
      <path class="cls-1" d="M7.14,36.39s-.03,0-.04-.02c-1.43-2.07-.87-5.32,1.56-9.14,2.42-3.81,6.42-7.74,11.26-11.07,5.77-3.97,11.85-6.49,16.66-6.9.03,0,.05.02.06.05s-.02.05-.05.06c-4.8.41-10.85,2.92-16.61,6.88-4.83,3.32-8.82,7.24-11.23,11.04-2.41,3.79-2.96,6.99-1.56,9.03.02.02.01.06-.01.07,0,0-.02,0-.03,0Z"/>
      <path class="cls-1" d="M12.61,38.57c-1.16,0-2.2-.15-3.09-.46-.03,0-.04-.04-.03-.07,0-.03.04-.04.07-.03,2.17.75,5.39.55,9.09-.58,3.82-1.16,7.92-3.21,11.85-5.91,9.95-6.85,15.69-15.85,12.79-20.07-.02-.02-.01-.06.01-.07.02-.02.06-.01.07.01,2.93,4.26-2.82,13.33-12.82,20.21-3.94,2.71-8.04,4.76-11.88,5.93-2.26.69-4.31,1.04-6.07,1.04Z"/>
      <path class="cls-1" d="M7.93,37.53s-.03,0-.04-.02c-2.93-4.26,2.82-13.33,12.82-20.21,5.09-3.51,10.62-5.95,15.15-6.71.03,0,.06.01.06.04,0,.03-.01.06-.04.06-4.52.75-10.02,3.19-15.11,6.69-9.95,6.85-15.69,15.85-12.79,20.07.02.02.01.06-.01.07,0,0-.02,0-.03,0Z"/>
      <path class="cls-1" d="M13.4,39.71c-1.53,0-2.84-.26-3.85-.78-.03-.01-.04-.04-.02-.07.01-.03.05-.04.07-.02,2.04,1.04,5.3,1.02,9.18-.07,3.95-1.1,8.39-3.27,12.51-6.11,9.95-6.85,15.69-15.85,12.79-20.07-.02-.02-.01-.06.01-.07.02-.02.06-.01.07.01,2.93,4.26-2.82,13.33-12.82,20.21-4.13,2.84-8.58,5.01-12.54,6.12-1.99.56-3.82.84-5.41.84Z"/>
      <path class="cls-1" d="M8.72,38.68s-.03,0-.04-.02c-2.93-4.26,2.82-13.33,12.82-20.21,4.45-3.06,9.2-5.31,13.38-6.34.03,0,.06.01.06.04,0,.03-.01.06-.04.06-4.17,1.03-8.91,3.27-13.35,6.33-9.95,6.85-15.69,15.85-12.79,20.07.02.02.01.06-.01.07,0,0-.02,0-.03,0Z"/>
      <path class="cls-1" d="M14.19,40.86c-1.89,0-3.43-.4-4.51-1.18-.02-.02-.03-.05-.01-.07.02-.02.05-.03.07-.01,1.86,1.36,5.13,1.53,9.19.5,4.12-1.05,8.78-3.28,13.14-6.27,4.83-3.32,8.82-7.24,11.23-11.04,2.41-3.79,2.96-6.99,1.56-9.03-.02-.02-.01-.06.01-.07.02-.02.06-.01.07.01,1.43,2.07.87,5.32-1.56,9.14-2.42,3.81-6.42,7.74-11.26,11.07-4.37,3-9.04,5.24-13.17,6.29-1.75.45-3.36.67-4.77.67Z"/>
      <path class="cls-1" d="M9.51,39.83s-.03,0-.04-.02c-1.43-2.07-.87-5.32,1.56-9.14,2.42-3.81,6.42-7.74,11.26-11.07,3.72-2.56,7.61-4.54,11.27-5.74.03,0,.06,0,.07.03,0,.03,0,.06-.03.07-3.65,1.19-7.54,3.17-11.24,5.72-4.83,3.32-8.82,7.24-11.23,11.04-2.41,3.79-2.96,6.99-1.56,9.03.02.02.01.06-.01.07,0,0-.02,0-.03,0Z"/>
      <path class="cls-1" d="M14.97,42.02c-2.24,0-3.98-.56-5.05-1.66-.02-.02-.02-.05,0-.07.02-.02.05-.02.07,0,3.42,3.49,13.47,1.16,22.87-5.31,9.95-6.85,15.69-15.85,12.79-20.07-.02-.02-.01-.06.01-.07.02-.02.06-.01.07.01,2.93,4.26-2.82,13.33-12.82,20.21-4.6,3.17-9.5,5.45-13.78,6.44-1.53.35-2.93.52-4.17.52Z"/>
      <path class="cls-1" d="M15.75,43.17c-2.59,0-4.49-.75-5.49-2.21-2.93-4.26,2.82-13.33,12.82-20.21,2.82-1.94,5.71-3.54,8.59-4.73.03-.01.06,0,.07.03.01.03,0,.06-.03.07-2.87,1.2-5.75,2.79-8.57,4.72-9.95,6.85-15.69,15.85-12.79,20.07,1.4,2.03,4.59,2.66,8.99,1.77,4.41-.9,9.5-3.22,14.32-6.55,4.83-3.32,8.82-7.24,11.23-11.04,2.41-3.79,2.96-6.99,1.56-9.03l-9.49-13.78s-.01-.06.01-.07c.02-.02.06-.01.07.01l9.49,13.78c1.43,2.07.87,5.32-1.56,9.14-2.42,3.81-6.42,7.74-11.26,11.07-4.84,3.33-9.94,5.66-14.36,6.56-1.31.27-2.52.4-3.6.4Z"/>
      <path class="cls-1" d="M10.3,40.98s-.03,0-.04-.02L.78,27.18c-1.43-2.07-.87-5.32,1.56-9.14,2.42-3.81,6.42-7.74,11.26-11.07C18.43,3.63,23.53,1.3,27.96.4c4.44-.9,7.67-.26,9.09,1.81.68.99.91,2.25.69,3.75,0,.03-.03.05-.06.04-.03,0-.05-.03-.04-.06.22-1.47,0-2.71-.67-3.68-1.4-2.03-4.59-2.66-8.99-1.77-4.41.9-9.5,3.22-14.32,6.55-4.83,3.32-8.82,7.24-11.23,11.04C.02,21.88-.54,25.08.86,27.12l9.49,13.78s.01.06-.01.07c0,0-.02,0-.03,0Z"/>
    </g>
  </g>
</svg>