<?xml version="1.0" encoding="UTF-8"?>
<svg id="Layer_2" data-name="Layer 2" xmlns="http://www.w3.org/2000/svg" viewBox="0 0 185.18 185.18">
  <defs>
    <style>
      .cls-1 {
        fill: #333;
        stroke: #000;
        stroke-miterlimit: 10;
        stroke-width: .5px;
      }
    </style>
  </defs>
  <g id="Layer_1-2" data-name="Layer 1">
    <g>
      <path class="cls-1" d="M92.59,184.93C41.67,184.93.25,143.51.25,92.59S41.67.25,92.59.25s92.34,41.42,92.34,92.34-41.42,92.34-92.34,92.34ZM92.59.71C41.93.71.71,41.93.71,92.59s41.22,91.88,91.88,91.88,91.88-41.22,91.88-91.88S143.25.71,92.59.71Z"/>
      <path class="cls-1" d="M101.82,183.7c-1.5,0-3.12-.06-4.87-.22-26.36-2.42-53.6-18.36-71.09-41.61-12.15-16.15-20.63-31.53-22.55-54.05-.82-9.64-.27-17.49,1.73-24.69.03-.12.16-.19.28-.16.12.03.2.16.16.29-1.99,7.15-2.54,14.94-1.72,24.53,1.91,22.41,10.36,37.72,22.46,53.81,17.41,23.15,44.53,39.03,70.76,41.43,5.71.52,10.1,0,13.3-.38.5-.06.97-.12,1.42-.16.13-.01.24.08.26.21.01.13-.08.24-.21.26-.44.05-.91.1-1.41.16-2.25.27-5.07.6-8.53.6Z"/>
      <path class="cls-1" d="M85.6,184.67s-.02,0-.03,0c-23.53-2.59-46.21-15.5-62.23-35.41C15.19,139.11,1.33,118.5.27,94.51c0-.13.09-.24.22-.24.12-.01.24.09.24.22,1.06,23.86,14.85,44.37,22.98,54.48,15.94,19.82,38.51,32.66,61.91,35.24.13.01.22.13.2.26-.01.12-.11.21-.23.21Z"/>
      <path class="cls-1" d="M111.53,178.38c-1.06,0-2.14-.02-3.24-.07-16.5-.73-41.75-7.6-68.42-36.14-25.43-27.22-30.7-53.08-30.64-69.97.06-18.32,6.23-30.36,6.29-30.48.06-.11.2-.16.31-.1.11.06.16.2.1.31-.06.12-6.18,12.08-6.24,30.29-.05,16.81,5.2,42.53,30.52,69.63,26.55,28.43,51.69,35.27,68.1,36,17.77.79,29.39-5.2,29.51-5.26.11-.06.25-.02.31.1.06.11.02.25-.1.31-.11.06-10.45,5.39-26.5,5.39Z"/>
      <path class="cls-1" d="M123.56,169.73c-5.54,0-11.33-.71-17.33-2.13-15.15-3.6-30.35-11.56-43.97-23.02-14.04-11.82-25.43-26.59-32.92-42.74-12.96-27.93-10.84-48.49-6.78-60.82,4.41-13.38,11.99-20.24,12.07-20.3.1-.09.24-.08.33.02.09.1.08.24-.02.33-.08.07-7.58,6.86-11.95,20.13-4.03,12.25-6.12,32.68,6.77,60.46,14.99,32.3,45.05,58.01,76.58,65.5,19.75,4.69,37.28,1.56,50.69-9.06.1-.08.25-.06.33.04.08.1.06.25-.04.33-9.45,7.48-20.92,11.28-33.76,11.28Z"/>
      <path class="cls-1" d="M133.05,157.47c-4.27,0-8.36-.46-12.09-1.14-36.93-6.79-74.96-42.61-84.78-79.84-7.74-29.35-.74-46.94,6.49-56.54,7.84-10.4,17.66-13.9,17.76-13.94.12-.04.25.02.29.14.04.12-.02.25-.14.29-.1.03-9.8,3.5-17.55,13.8-7.16,9.51-14.08,26.96-6.39,56.12,9.77,37.07,47.64,72.74,84.41,79.51,15.45,2.84,37.09,1.71,52.5-19.8.07-.1.22-.13.32-.05.1.07.13.22.05.32-11.83,16.51-27.3,21.13-40.88,21.13Z"/>
      <path class="cls-1" d="M140.75,142.65c-1.21,0-2.43-.04-3.68-.12-16.86-1.06-35.72-9.41-51.76-22.91-16.88-14.21-28.87-32.47-33.74-51.41-5.36-20.82-3.85-37.54,4.48-49.69C66.8,2.87,85.39.53,85.58.51c.13-.01.24.08.26.2.01.13-.08.24-.2.26-.18.02-18.58,2.34-29.2,17.82-8.25,12.03-9.74,28.62-4.41,49.31,10.74,41.73,52.67,71.93,85.08,73.97,21.17,1.33,37.14-8.82,44.98-28.58.05-.12.18-.18.3-.13.12.05.18.18.13.3-7.45,18.8-22.2,28.99-41.76,28.99Z"/>
      <path class="cls-1" d="M145.56,125.69c-6.88,0-14.37-1.39-22.23-4.2-20.73-7.4-40.07-25.8-50.48-48.01-7.88-16.8-9.51-33.43-4.6-46.82,6.17-16.83,19.07-22.24,28.8-23.81,10.53-1.7,19.73.61,19.82.63.12.03.2.16.17.28s-.16.2-.28.17c-.09-.02-9.21-2.31-19.65-.62-9.61,1.55-22.34,6.89-28.43,23.51-4.86,13.28-3.23,29.78,4.59,46.47,10.36,22.11,29.6,40.41,50.22,47.77,18.26,6.52,34.49,5.37,45.69-3.24,10.59-8.14,15.64-22.11,14.22-39.33-.01-.13.08-.24.21-.25.13-.01.24.08.25.21,1.44,17.39-3.67,31.5-14.4,39.74-6.5,4.99-14.65,7.51-23.9,7.51Z"/>
      <path class="cls-1" d="M148.16,107.82c-15.84,0-34.53-9.34-47.88-25.6-11.73-14.28-17.77-31.41-16.17-45.82,1.03-9.28,5.12-16.94,11.82-22.16,17.01-13.26,47.8-4.1,67.23,19.99,12.18,15.1,17.96,31.21,16.26,45.35-1.11,9.28-5.39,17.01-12.36,22.35-5.23,4-11.78,5.89-18.9,5.89ZM115.12,8.6c-7.13,0-13.68,1.93-18.91,6-6.6,5.14-10.63,12.7-11.64,21.85-1.59,14.29,4.42,31.29,16.07,45.48,19.2,23.39,49.49,32.38,66.14,19.64,6.88-5.26,11.09-12.88,12.19-22.04,1.68-14.02-4.06-30-16.16-45-13.29-16.47-31.89-25.92-47.68-25.92Z"/>
      <path class="cls-1" d="M148.68,88.99c-11.38,0-24.79-6.69-34.36-18.34-8.4-10.23-12.73-22.52-11.58-32.86.74-6.69,3.7-12.23,8.54-16,12.25-9.55,34.39-3.01,48.34,14.28,8.73,10.82,12.87,22.37,11.65,32.53-.8,6.7-3.89,12.27-8.93,16.13-3.78,2.89-8.51,4.26-13.66,4.26ZM125.14,17.83c-5.12,0-9.83,1.38-13.58,4.31-4.74,3.7-7.63,9.12-8.36,15.69-1.14,10.22,3.16,22.38,11.48,32.52,13.74,16.73,35.44,23.15,47.38,14.01,4.94-3.78,7.96-9.25,8.75-15.82,1.2-10.03-2.9-21.46-11.55-32.18-9.5-11.77-22.81-18.52-34.11-18.52Z"/>
      <path class="cls-1" d="M147.02,70.18c-6.36,0-13.84-3.74-19.19-10.25-4.7-5.72-7.12-12.59-6.47-18.36.41-3.73,2.06-6.82,4.76-8.93,6.84-5.33,19.19-1.67,26.99,7.99h0c4.88,6.05,7.19,12.5,6.51,18.18-.45,3.74-2.17,6.85-4.98,9-2.11,1.61-4.74,2.37-7.61,2.37ZM133.85,30.64c-2.81,0-5.39.76-7.45,2.36-2.6,2.03-4.19,5-4.59,8.61-.63,5.66,1.75,12.39,6.37,18.02,7.61,9.26,19.59,12.84,26.16,7.8,2.71-2.07,4.37-5.08,4.8-8.69.66-5.55-1.61-11.88-6.41-17.83-5.27-6.53-12.64-10.28-18.89-10.28Z"/>
      <path class="cls-1" d="M142.72,51.8c-.08,0-.16,0-.24-.01-.9-.08-1.84-.62-2.52-1.44-.69-.84-1.03-1.85-.91-2.71.08-.56.35-1.02.77-1.32,1.1-.76,2.88-.28,3.97,1.08,1.18,1.46,1.23,3.07.13,3.99-.32.27-.73.4-1.21.4ZM141.05,46.42c-.35,0-.68.09-.95.28-.32.22-.52.57-.58,1-.1.73.2,1.61.81,2.35.59.72,1.42,1.2,2.2,1.27.45.04.83-.06,1.11-.29.91-.76.84-2.08-.19-3.35h0c-.65-.8-1.58-1.26-2.39-1.26Z"/>
      <path class="cls-1" d="M16.55,144.82c-.09,0-.18-.05-.21-.14-2.26-5.32,13.26-20.43,48.85-47.54,30.41-23.16,67.48-43.55,75.15-47.69-6.93,1.53-35.63,8.47-66.83,24.88-19.06,10.03-35.84,20.9-47.26,30.61-13.02,11.07-18.81,20.38-16.76,26.9.04.12-.03.25-.15.29-.12.04-.25-.03-.29-.15-4.83-15.37,31.59-40.88,64.25-58.06,35.74-18.8,68.21-25.2,68.54-25.26.11-.02.22.04.26.15.04.11,0,.23-.11.28-.42.22-42.62,22.59-76.52,48.42-34.91,26.59-50.84,41.97-48.7,46.99.05.12,0,.25-.12.3-.03.01-.06.02-.09.02Z"/>
      <path class="cls-1" d="M36.55,165.06c-.47,0-.91-.04-1.32-.13-.13-.03-.2-.15-.18-.28.03-.13.15-.2.28-.18,11.16,2.43,41.26-29.54,64.55-56.77,19.22-22.49,36.91-50.9,40.95-57.52-8.03,7.47-53.31,49.56-64.96,60.18l-1.08.99c-13.99,12.75-43.1,39.27-49.98,43.66-.11.07-.25.04-.32-.07-.07-.11-.04-.25.07-.32,6.85-4.37,37.03-31.87,49.92-43.61l1.08-.99c12.74-11.61,65.64-60.81,66.18-61.31.08-.08.21-.08.3-.01.09.07.11.2.05.3-.2.33-20.03,33.47-41.86,59-22.51,26.33-51.41,57.06-63.67,57.06Z"/>
      <path class="cls-1" d="M64.17,180.4c-.07,0-.13,0-.2,0-.13,0-.23-.1-.23-.23,0-.13.08-.23.23-.23.07,0,.13,0,.2,0,19.71,0,38.47-18.68,59.03-58.77,15.05-29.35,17.88-62.35,18.36-70.43-2.37,7.59-12.48,37.99-30.03,65.04-18.45,28.44-44.45,61.54-63.57,57.66-.13-.03-.21-.15-.18-.27.03-.12.15-.2.27-.18,8.22,1.67,18.59-3.67,30.84-15.86,9.87-9.83,20.72-23.82,32.26-41.6,20.09-30.97,30.41-66.35,30.52-66.71.03-.11.14-.18.26-.16.12.02.2.12.2.24-.01.38-1.24,38.82-18.5,72.49-20.65,40.26-39.54,59.02-59.44,59.02Z"/>
      <path class="cls-1" d="M101.73,184.48c-.11,0-.2-.07-.23-.18-.03-.13.05-.25.18-.28,9.98-2.14,34.35-12.14,45.07-58.65,7.7-33.39-1.3-65.05-4.23-73.95,1.09,7.55,3.58,30.54-1.91,55.48-1.89,8.58-7.65,30.62-20.38,50.03-11.62,17.72-25.42,27.12-39.92,27.18-.13-.02-.23-.1-.23-.23s.1-.23.23-.23c33.99-.14,54.01-50.33,59.85-76.85,6.66-30.24,1.55-57.61,1.49-57.88-.02-.12.05-.23.16-.27.12-.03.24.03.28.14.14.37,14.18,37.33,5.11,76.68-10.78,46.77-35.36,56.84-45.42,59-.02,0-.03,0-.05,0Z"/>
      <path class="cls-1" d="M125.55,178.85c-.08,0-.16-.04-.2-.11-.06-.11-.03-.25.08-.32,29.46-17.34,32.23-46.4,32.51-72.28.29-26.74-16.1-56.85-16.27-57.15-.06-.11-.03-.24.07-.3.1-.07.24-.04.31.05.22.27,21.57,27.73,23.99,53.77,2.32,25.02,2.41,41.69-15.83,62.23-.09.1-.23.1-.33.02-.1-.09-.1-.23-.02-.33,18.11-20.4,18.02-36.99,15.71-61.88-2-21.55-17.05-44.1-22.18-51.23,3.93,7.86,15.25,32.5,15.01,54.82-.28,26.01-3.07,55.22-32.74,72.68-.04.02-.08.03-.12.03Z"/>
      <path class="cls-1" d="M168.63,144.82s-.07,0-.1-.02c-.12-.05-.16-.19-.11-.31,12.55-26.3,4.5-48.85-2.65-63.53-8.48-17.41-23.9-31.77-24.05-31.91-.09-.08-.1-.22-.03-.31.07-.1.21-.12.31-.06.11.07,11.36,7.17,21.67,19.54,9.53,11.43,20.19,29.82,16.88,52.55-.02.13-.14.21-.26.2-.13-.02-.21-.14-.2-.26,3.28-22.55-7.31-40.82-16.77-52.17-7.57-9.09-15.65-15.31-19.41-17.98,4.4,4.43,15.52,16.36,22.28,30.21,7.19,14.76,15.29,37.45,2.65,63.93-.04.08-.12.13-.21.13Z"/>
      <path class="cls-1" d="M184.33,101.07c-.12,0-.22-.1-.23-.22-1.04-18.12-12.49-31.23-21.91-39.03-10.21-8.46-20.31-12.69-20.41-12.73-.11-.05-.17-.17-.13-.28.04-.12.16-.18.27-.15.36.08,36.1,8.73,42.48,34.14.03.12-.04.25-.17.28-.12.03-.25-.04-.28-.17-5.27-20.99-30.89-30.44-39.39-33.03,3.69,1.81,10.78,5.67,17.92,11.59,9.49,7.86,21.02,21.07,22.07,39.36,0,.13-.09.24-.22.24,0,0,0,0-.01,0Z"/>
      <path class="cls-1" d="M181.33,68.06c-.09,0-.18-.06-.22-.15-6.62-16.71-38.92-18.78-39.25-18.8-.12,0-.21-.1-.22-.22,0-.12.08-.22.19-.24,1.04-.18,25.51-4.2,34.18,4.35.09.09.09.24,0,.33-.09.09-.24.09-.33,0-7.09-7-25.69-5.29-31.8-4.51,7.24.76,31.9,4.39,37.65,18.91.05.12-.01.25-.13.3-.03.01-.06.02-.09.02Z"/>
      <path class="cls-1" d="M141.88,49.11c-.08,0-.15-.04-.19-.1-.06-.1-.04-.23.04-.3l19.93-17.06c.1-.08.24-.07.33.03.08.1.07.24-.03.33l-18.65,15.96c4.71-2.13,18.93-8.12,26.2-6.37.12.03.2.15.17.28-.03.12-.15.2-.28.17-8.45-2.03-27.23,6.95-27.42,7.04-.03.02-.07.02-.1.02Z"/>
      <path class="cls-1" d="M141.88,49.11s-.07,0-.1-.02c-.1-.05-.16-.17-.12-.28.09-.26,8.66-26.58-.48-34.21-.1-.08-.11-.23-.03-.33.08-.1.23-.11.33-.03,8.11,6.78,2.93,26.98,1.15,33.02,2.98-4.83,11.92-20.01,9.55-24.64-.06-.11-.01-.25.1-.31.11-.06.25-.01.31.1,2.94,5.74-9.96,25.74-10.51,26.59-.04.07-.12.11-.19.11Z"/>
      <path class="cls-1" d="M141.88,49.11c-.12,0-.22-.09-.23-.2-.05-.39-4.88-38.94-28.15-45.81-.12-.04-.19-.16-.16-.29.04-.12.16-.19.29-.16,20.27,5.98,26.71,35.58,28.14,43.97.27-7.39.1-31.02-12.7-38.39-.11-.06-.15-.21-.09-.32.06-.11.21-.15.32-.09,15.42,8.89,12.84,40.74,12.81,41.06-.01.12-.11.21-.23.21h0Z"/>
      <path class="cls-1" d="M141.88,49.11c-.09,0-.17-.05-.21-.14-.06-.12-5.68-12.26-16.59-24.02C115.02,14.11,98.28,1.38,75.66,2.27c-.11.01-.24-.09-.24-.22,0-.13.09-.24.22-.24,22.79-.9,39.65,11.93,49.78,22.85,7.76,8.37,12.86,16.93,15.2,21.25-1.49-4.06-4.61-11.65-9.62-19.42-6.74-10.48-18.38-23.45-35.5-25.73-.13-.02-.22-.13-.2-.26.02-.13.13-.22.26-.2,17.31,2.3,29.04,15.38,35.84,25.94,7.35,11.43,10.67,22.46,10.7,22.57.03.12-.03.24-.14.28-.03.01-.05.01-.08.01Z"/>
      <path class="cls-1" d="M141.88,49.11c-.06,0-.12-.02-.16-.07-.09-.09-8.83-8.9-23.58-17.11-13.61-7.57-35.25-16.17-61.13-14.09-22.36,1.8-34.66,15.53-34.79,15.67-.08.1-.23.11-.33.02-.1-.08-.11-.23-.02-.33.12-.14,12.55-14.02,35.1-15.83,25.99-2.09,47.74,6.54,61.41,14.15,10.47,5.83,17.93,11.97,21.43,15.09C116.87,18.11,94.42,9.65,79.45,7.62c-16.64-2.26-27.85,2.73-27.96,2.78-.12.05-.25,0-.31-.11-.05-.12,0-.25.12-.31.11-.05,11.44-5.09,28.21-2.82,15.46,2.1,38.87,11.01,62.55,41.58.07.1.06.24-.03.32-.04.04-.1.06-.15.06Z"/>
      <path class="cls-1" d="M1.12,81.96s-.03,0-.04,0c-.13-.02-.21-.14-.19-.27,3.04-17.87,17.95-28.64,29.92-34.52,15.23-7.49,34.74-11.43,53.53-10.82,28.62.93,47.84,8,54.78,11-7-4.39-27.26-15.87-52.81-19.27-28.25-3.76-65.96,2.07-79.24,30.9-.05.12-.19.17-.31.11-.12-.05-.17-.19-.11-.31,5.82-12.63,17.07-22.11,32.53-27.41,13.6-4.66,30.36-5.99,47.19-3.75,31.78,4.23,55.41,20.92,55.65,21.08.1.07.13.21.06.31-.06.1-.2.14-.31.08-.21-.11-21.29-11.11-57.45-12.28-18.71-.6-38.14,3.32-53.31,10.78-11.87,5.84-26.66,16.51-29.67,34.19-.02.11-.12.19-.23.19Z"/>
      <path class="cls-1" d="M3.33,115.64c-.13,0-.23-.1-.23-.23-.32-18.28,25.32-39.54,65.33-54.16,33.9-12.39,63.34-12.81,71.33-12.67-7.82-1.85-37.19-7.54-73.67.9-20.04,4.63-36.76,12.11-48.35,21.63C7.42,79.58,1.51,89.46,1.08,98.93c0,.13-.11.23-.24.22-.13,0-.23-.11-.22-.24.44-9.6,6.41-19.6,16.83-28.16,11.65-9.56,28.43-17.08,48.54-21.73,42.67-9.86,75.63-.47,75.96-.37.11.03.18.15.16.26-.02.12-.12.2-.24.19-.33-.02-33.77-1.87-73.27,12.57-19.54,7.14-36.01,16.02-47.65,25.68-11.53,9.57-17.54,19.27-17.38,28.04,0,.13-.1.23-.23.24h0Z"/>
    </g>
  </g>
</svg>